<svg width="40" height="19" viewBox="0 0 40 19" fill="none" xmlns="http://www.w3.org/2000/svg">
<path d="M7.75984 3.80532C8.2232 3.22575 8.53764 2.44756 8.45471 1.65234C7.77641 1.68607 6.94867 2.09984 6.46945 2.67987C6.03916 3.17657 5.65833 3.98734 5.75761 4.74922C6.51904 4.81527 7.27976 4.36863 7.75984 3.80532Z" fill="black"/>
<path d="M8.44585 4.89894C7.34007 4.83308 6.39989 5.52652 5.87182 5.52652C5.34347 5.52652 4.53483 4.93214 3.66022 4.94816C2.52186 4.96488 1.46559 5.60851 0.887924 6.6322C-0.300243 8.68007 0.574367 11.7178 1.7298 13.3857C2.2909 14.2108 2.96712 15.1194 3.85815 15.0867C4.70003 15.0537 5.03001 14.5416 6.05334 14.5416C7.07592 14.5416 7.37316 15.0867 8.26434 15.0702C9.18851 15.0537 9.76628 14.2447 10.3274 13.4187C10.9711 12.4781 11.2346 11.5698 11.2511 11.52C11.2346 11.5034 9.46908 10.8262 9.45271 8.7953C9.43604 7.09484 10.8388 6.28601 10.9048 6.23584C10.1127 5.06424 8.87495 4.93213 8.44585 4.89894Z" fill="black"/>
<path d="M18.074 2.59766C20.4774 2.59766 22.151 4.25433 22.151 6.66633C22.151 9.08694 20.443 10.7522 18.0138 10.7522H15.3528V14.984H13.4302V2.59766L18.074 2.59766ZM15.3528 9.13843H17.5588C19.2327 9.13843 20.1854 8.23724 20.1854 6.67494C20.1854 5.1128 19.2327 4.22006 17.5674 4.22006H15.3528V9.13843Z" fill="black"/>
<path d="M22.6533 12.4158C22.6533 10.8362 23.8636 9.86634 26.0097 9.74614L28.4816 9.60028V8.90506C28.4816 7.90072 27.8035 7.29987 26.6707 7.29987C25.5975 7.29987 24.9279 7.81479 24.765 8.62177H23.0139C23.1169 6.99076 24.5074 5.78906 26.7392 5.78906C28.928 5.78906 30.3271 6.94787 30.3271 8.75902V14.9822H28.5502V13.4973H28.5075C27.984 14.5016 26.8422 15.1367 25.6577 15.1367C23.8895 15.1367 22.6533 14.038 22.6533 12.4158ZM28.4816 11.6003V10.8879L26.2584 11.0252C25.1511 11.1025 24.5246 11.5917 24.5246 12.3643C24.5246 13.1539 25.1769 13.6689 26.1726 13.6689C27.4687 13.6689 28.4816 12.7762 28.4816 11.6003Z" fill="black"/>
<path d="M32.0046 18.3052V16.803C32.1417 16.8372 32.4506 16.8372 32.6052 16.8372C33.4635 16.8372 33.9271 16.4768 34.2103 15.5498C34.2103 15.5326 34.3735 15.0004 34.3735 14.9918L31.1118 5.95312H33.1202L35.4037 13.3009H35.4378L37.7213 5.95312H39.6783L36.2961 15.4552C35.5239 17.6442 34.6311 18.3481 32.7599 18.3481C32.6052 18.3481 32.1417 18.3308 32.0046 18.3052Z" fill="black"/>
</svg>
