<svg width="40" height="24" viewBox="0 0 40 24" fill="none" xmlns="http://www.w3.org/2000/svg">
<rect width="40" height="24" rx="6" fill="#F5F5F5"/>
<g clip-path="url(#clip0_932_33248)">
<path d="M15.6164 12.8233C15.6164 13.6395 15.009 14.2154 14.1595 14.2154C13.3586 14.2154 12.6973 13.698 12.6973 12.6792V12.1777C12.6973 11.1962 13.1758 10.483 14.0626 10.3177L15.3728 10.1562V10.6789L14.1862 10.8189C13.6487 10.9257 13.3207 11.2665 13.2884 11.976C13.4925 11.5707 13.8905 11.4627 14.2561 11.4627C15.0413 11.463 15.6164 12.0124 15.6164 12.8233ZM15.0143 12.818C15.0143 12.3274 14.6596 11.9754 14.1651 11.9754C13.6653 11.9754 13.3106 12.3274 13.3106 12.818C13.3106 13.3195 13.6653 13.666 14.1651 13.666C14.6596 13.666 15.0143 13.3192 15.0143 12.818Z" fill="#002E8D"/>
<path d="M18.8146 12.9828C18.8167 12.8954 18.8146 12.8119 18.8087 12.7313C18.7402 11.834 18.1672 11.3398 17.3912 11.3398C16.5621 11.3398 15.9678 11.9637 15.9678 12.7854C15.9678 13.649 16.5885 14.2201 17.4344 14.2201C18.0596 14.2201 18.5568 13.8572 18.729 13.391H18.1355C17.9986 13.5751 17.7669 13.7137 17.4395 13.7137C16.979 13.7137 16.6208 13.4145 16.5832 12.9828H18.8146ZM16.5838 12.5187C16.6155 12.1243 16.953 11.836 17.3915 11.836C17.8469 11.836 18.1675 12.1293 18.1838 12.5187H16.5838Z" fill="#002E8D"/>
<path d="M19.021 13.6384C19.2361 13.6278 19.4616 13.5105 19.4616 13.0678V11.3984H21.6509V14.1667H21.0435V11.9426H20.0586V13.0787C20.0586 13.8467 19.6017 14.1934 19.0156 14.1828L19.021 13.6384Z" fill="#002E8D"/>
<path d="M23.3109 12.6896L24.6475 11.3984H23.9399L23.201 12.1105L22.785 12.5114V11.3984H22.7755H22.2131H22.1772V14.1667H22.2131H22.7755H22.785V12.8684L23.1944 13.3258L23.9455 14.1667H24.6525L23.3109 12.6896Z" fill="#002E8D"/>
<path d="M27.0782 11.3973L27.0044 11.8085C26.765 11.5179 26.3534 11.3438 25.983 11.3438C25.9786 11.3438 25.9747 11.3443 25.9703 11.3443C25.9638 11.3443 25.9576 11.3438 25.9507 11.3438C25.5481 11.3438 25.2204 11.4899 24.9857 11.7279C24.9744 11.739 24.9626 11.7502 24.9516 11.7617C24.9451 11.7687 24.9389 11.7767 24.9327 11.784C24.7066 12.0379 24.5801 12.3835 24.5801 12.7785C24.5801 12.7802 24.5804 12.782 24.5804 12.7837C24.5804 12.7855 24.5801 12.7873 24.5801 12.789C24.5801 13.184 24.7066 13.5299 24.9327 13.7835C24.9392 13.7908 24.9451 13.7985 24.9516 13.8058C24.9626 13.8176 24.9744 13.8285 24.9857 13.8396C25.2204 14.0776 25.5481 14.2238 25.9507 14.2238C25.9573 14.2238 25.9638 14.2232 25.9703 14.2232C25.9747 14.2232 25.9786 14.2238 25.983 14.2238C26.3534 14.2238 26.765 14.0496 27.0044 13.759V14.1702H27.6224V14.1649V11.4029V11.3976H27.0782V11.3973ZM26.1066 13.6696C25.5798 13.6696 25.2035 13.3017 25.2035 12.7843C25.2035 12.267 25.5798 11.899 26.1066 11.899C26.6281 11.899 26.999 12.2832 26.999 12.7843C26.999 13.2855 26.6281 13.6696 26.1066 13.6696Z" fill="#002E8D"/>
<path d="M28.1475 11.397V11.4023V15.4114V15.4167H28.7655V13.759C29.0049 14.0496 29.4165 14.2238 29.7869 14.2238C29.7913 14.2238 29.7952 14.2232 29.7996 14.2232C29.8061 14.2232 29.8124 14.2238 29.8192 14.2238C30.2218 14.2238 30.5495 14.0776 30.7842 13.8396C30.7955 13.8285 30.8073 13.8173 30.8183 13.8058C30.8248 13.7987 30.831 13.7908 30.8372 13.7835C31.0633 13.5296 31.1898 13.184 31.1898 12.789C31.1898 12.7873 31.1895 12.7855 31.1895 12.7837C31.1895 12.782 31.1898 12.7802 31.1898 12.7785C31.1898 12.3835 31.0633 12.0376 30.8372 11.784C30.8307 11.7767 30.8248 11.769 30.8183 11.7617C30.8073 11.7499 30.7955 11.739 30.7842 11.7279C30.5495 11.4899 30.2218 11.3438 29.8192 11.3438C29.8126 11.3438 29.8061 11.3443 29.7996 11.3443C29.7952 11.3443 29.7913 11.3438 29.7869 11.3438C29.4165 11.3438 29.0049 11.5179 28.7655 11.8085L28.6918 11.3973H28.1475V11.397ZM28.7712 12.7837C28.7712 12.2823 29.1421 11.8985 29.6636 11.8985C30.1904 11.8985 30.5667 12.2664 30.5667 12.7837C30.5667 13.3011 30.1904 13.669 29.6636 13.669C29.1421 13.6693 28.7712 13.2852 28.7712 12.7837Z" fill="#002E8D"/>
<path d="M35.7929 12.4398V14.1701H35.1793V12.5945C35.1793 12.0925 34.9209 11.8681 34.5763 11.8681C34.2211 11.8681 33.952 12.1031 33.952 12.5945V14.1701H33.3384V12.5945C33.3384 12.0925 33.0747 11.8681 32.7408 11.8681C32.3802 11.8681 32.1112 12.1031 32.1112 12.5945V14.1701H31.4922V11.3984H32.032L32.102 11.7981C32.2634 11.5151 32.531 11.3398 32.9455 11.3398C33.3221 11.3398 33.6309 11.4937 33.7977 11.7981C33.9808 11.5151 34.2857 11.3398 34.7378 11.3398C35.3677 11.3395 35.7929 11.7616 35.7929 12.4398Z" fill="#002E8D"/>
<path d="M7.19932 14.4153L6.10924 15.4764C6.03606 15.5476 6.03724 15.6388 6.06243 15.7006C6.08761 15.7623 6.15132 15.8282 6.25354 15.8285L8.17176 15.8347C8.31932 15.8353 8.44169 15.7164 8.44435 15.5697C8.44435 15.562 8.44465 15.5541 8.44465 15.5461C8.44583 15.1291 8.27902 14.7209 7.9848 14.4229C7.76998 14.2059 7.41798 14.2023 7.19932 14.4153Z" fill="#32A8FF"/>
<path d="M5.94742 13.6046L4.4206 13.5899C4.31838 13.589 4.25409 13.654 4.22801 13.7154C4.20194 13.7769 4.19986 13.8681 4.27186 13.9401L5.62386 15.2907C5.72786 15.3946 5.89912 15.3963 6.0052 15.2949C6.01083 15.2896 6.01646 15.284 6.02209 15.2784C6.32016 14.9843 6.4929 14.5787 6.49705 14.1613C6.50001 13.8572 6.25349 13.6075 5.94742 13.6046Z" fill="#32A8FF"/>
<path d="M4.47448 13.3952C4.48248 13.3952 4.49019 13.3955 4.49819 13.3955C4.91834 13.3967 5.3296 13.2311 5.62974 12.939C5.84841 12.7264 5.85167 12.3767 5.63745 12.1596L4.56841 11.0775C4.49671 11.0049 4.40486 11.0061 4.34263 11.0311C4.28041 11.0561 4.21404 11.1193 4.21374 11.2208L4.20752 13.1246C4.20693 13.2711 4.32663 13.3925 4.47448 13.3952Z" fill="#32A8FF"/>
<path d="M4.76445 10.9888C5.06075 11.2846 5.46934 11.4561 5.88979 11.4602C6.19586 11.4632 6.44742 11.2185 6.45038 10.9146L6.46519 9.39905C6.46608 9.29758 6.4006 9.23375 6.33868 9.20787C6.27675 9.18199 6.1849 9.17993 6.11231 9.2514L4.75201 10.5935C4.64742 10.6967 4.64564 10.8667 4.74786 10.972C4.75349 10.9776 4.75882 10.9832 4.76445 10.9888Z" fill="#32A8FF"/>
<path d="M7.91008 10.6069L9.00016 9.54574C9.07334 9.47456 9.07216 9.38338 9.04697 9.32162C9.02179 9.25986 8.95808 9.19397 8.85586 9.19368L6.93793 9.1875C6.79038 9.18691 6.66801 9.30574 6.66534 9.4525C6.66534 9.46044 6.66505 9.46809 6.66505 9.47603C6.66386 9.89309 6.83067 10.3013 7.1249 10.5993C7.33942 10.8163 7.69171 10.8196 7.91008 10.6069Z" fill="#32A8FF"/>
<path d="M9.16197 11.4137L10.6888 11.4284C10.791 11.4293 10.8553 11.3643 10.8814 11.3028C10.9074 11.2413 10.9095 11.1501 10.8375 11.0781L9.48552 9.7275C9.38152 9.62367 9.21026 9.62191 9.10419 9.72338C9.09856 9.72867 9.09293 9.73426 9.0873 9.73985C8.78923 10.034 8.61648 10.4396 8.61234 10.8569C8.60908 11.1613 8.85589 11.4107 9.16197 11.4137Z" fill="#32A8FF"/>
<path d="M10.6349 11.6253C10.6269 11.6253 10.6192 11.625 10.6112 11.625C10.1911 11.6238 9.77984 11.7894 9.47969 12.0815C9.26102 12.2941 9.25776 12.6438 9.47198 12.8609L10.541 13.9429C10.6127 14.0156 10.7046 14.0144 10.7668 13.9894C10.829 13.9644 10.8954 13.9012 10.8957 13.7997L10.9019 11.8956C10.9022 11.7494 10.7825 11.6279 10.6349 11.6253Z" fill="#32A8FF"/>
<path d="M10.3453 14.034C10.049 13.7381 9.64039 13.5666 9.21995 13.5625C8.91387 13.5596 8.66232 13.8043 8.65936 14.1081L8.64454 15.6237C8.64365 15.7252 8.70913 15.789 8.77106 15.8149C8.83298 15.8408 8.92484 15.8428 8.99743 15.7713L10.358 14.4293C10.4626 14.3261 10.4644 14.1561 10.3622 14.0508C10.3565 14.0452 10.3509 14.0393 10.3453 14.034Z" fill="#32A8FF"/>
</g>
<defs>
<clipPath id="clip0_932_33248">
<rect width="32" height="7" fill="white" transform="translate(4 9)"/>
</clipPath>
</defs>
</svg>
