<svg width="40" height="24" viewBox="0 0 40 24" fill="none" xmlns="http://www.w3.org/2000/svg">
<rect width="40" height="24" rx="4" fill="#F5F5F5"/>
<g clip-path="url(#clip0_932_33378)">
<path d="M33.7133 13.0248C33.6251 13.7722 33.292 14.3716 32.8114 14.3716C32.3295 14.3716 32.1518 13.7722 32.2413 13.0248C32.3295 12.2735 32.6547 11.6673 33.1326 11.6673C33.6157 11.666 33.8015 12.2735 33.7133 13.0248ZM35.9632 15.0497C36.0895 14.7793 35.3825 15.1203 35.5681 13.5324C35.6578 12.845 36 10.567 36 10.567C36 10.5283 35.9711 10.5177 35.9711 10.5177H34.0081C34.0081 10.5177 33.9488 10.5283 33.9488 10.5763C33.9488 10.5763 33.9107 10.8481 33.8606 11.2664C33.6236 10.7069 33.1919 10.3178 32.5166 10.3178C31.2289 10.3178 30.3863 11.5354 30.2205 12.9036C30.052 14.2411 30.5733 15.7478 31.8081 15.7478C32.4968 15.7478 33.0852 15.2695 33.4986 14.6208C33.5369 15.3281 34.0172 15.7598 34.6965 15.7598C35.2471 15.7598 35.8248 15.3694 35.9632 15.0497ZM27.1529 10.7961C27.253 10.4457 27.5374 9.46794 27.9587 9.46794C28.2049 9.46794 28.214 9.60914 28.2049 9.73837C28.126 10.3485 27.1529 10.7961 27.1529 10.7961ZM27.3004 12.5825C27.7902 12.6731 27.9496 13.0235 27.9192 13.5617C27.91 13.8508 27.6664 14.67 27.1529 14.67C26.4368 14.67 26.6528 13.0834 26.7316 12.6438C26.7316 12.6438 27.0464 12.5439 27.3004 12.5825ZM29.6966 13.0834C29.5899 11.666 28.0074 11.3663 26.887 11.7566L26.9372 11.5554C30.9433 11.1065 30.2941 8.0998 28.3116 8.16108C26.0155 8.22103 24.749 11.1065 24.749 13.2819C24.749 14.6607 25.5521 15.7984 27.0385 15.7984C28.5565 15.7984 29.8137 14.7007 29.6966 13.0834ZM23.7037 15.5706C23.7037 15.5706 24.2738 10.8774 24.3014 10.6482C24.3014 10.6176 24.283 10.6069 24.2725 10.6069H24.2817C22.7519 10.2872 21.3669 10.3072 20.0109 10.6069C20.0003 10.6069 19.9714 10.6176 19.9714 10.6576C19.9714 10.6576 19.7831 12.2655 19.4895 13.0435C18.93 14.4809 18.3204 14.5515 18.3007 14.7406C18.2731 14.9511 18.5166 15.841 19.4303 15.841C20.2255 15.841 20.7758 15.3215 21.0693 14.1238C21.2681 13.3352 21.3853 12.456 21.4248 11.5275H22.2187C22.0423 13.0048 21.7276 15.5719 21.7276 15.5719C21.7276 15.6212 21.7671 15.6212 21.7671 15.6212H23.6629C23.6655 15.6185 23.7037 15.6185 23.7037 15.5706ZM15.7098 13.0248C15.6216 13.7722 15.2872 14.3716 14.8067 14.3716C14.3248 14.3716 14.1497 13.7722 14.2379 13.0248C14.3248 12.2735 14.65 11.6673 15.1318 11.6673C15.6124 11.666 15.7967 12.2735 15.7098 13.0248ZM17.9571 15.0497C18.0848 14.7793 17.3765 15.1203 17.5648 13.5324C17.6517 12.845 17.9966 10.567 17.9966 10.567C17.9966 10.5283 17.9689 10.5177 17.9689 10.5177H16.0034C16.0034 10.5177 15.9455 10.5283 15.9455 10.5763C15.9455 10.5763 15.9046 10.8481 15.8559 11.2664C15.6203 10.7069 15.1898 10.3178 14.5118 10.3178C13.2255 10.3178 12.383 11.5354 12.2144 12.9036C12.0472 14.2411 12.5673 15.7478 13.8061 15.7478C14.492 15.7478 15.0818 15.2695 15.4926 14.6208C15.5321 15.3281 16.0152 15.7598 16.6906 15.7598C17.2422 15.7598 17.8189 15.3694 17.9571 15.0497ZM11.7589 15.6185H9.10877C9.05873 15.6185 9.04952 15.5693 9.04952 15.5693L7.98973 12.9329C7.0471 13.611 7.56713 14.69 7.75407 14.8885C7.83307 15.0191 7.33147 15.837 6.42702 15.837C5.57523 15.837 4.95515 15.127 5.00254 14.2477C5.06179 13.2206 6.15318 12.1722 7.54606 11.7633L5.95571 8.53942C5.95571 8.53942 5.93727 8.46881 6.01495 8.46881H8.49921C8.54925 8.46881 8.56899 8.52876 8.56899 8.52876L9.59193 11.1744C10.603 10.5736 10.0224 9.1975 9.81705 8.99768C9.74729 8.92841 10.0224 8.30895 10.9269 8.22902C11.9077 8.1371 12.5264 8.8285 12.508 9.71705C12.4896 10.7641 11.4956 11.8245 10.0738 12.2522L11.7918 15.5679C11.7892 15.5706 11.8182 15.6185 11.7589 15.6185Z" fill="#F26924"/>
</g>
<defs>
<clipPath id="clip0_932_33378">
<rect width="31" height="8" fill="white" transform="translate(5 8)"/>
</clipPath>
</defs>
</svg>
