<svg width="40" height="24" viewBox="0 0 40 24" fill="none" xmlns="http://www.w3.org/2000/svg">
<rect width="40" height="24" rx="4" fill="#F5F5F5"/>
<g clip-path="url(#clip0_932_33237)">
<path d="M12.8064 19.9649V18.903C12.8064 18.4968 12.5542 18.2309 12.1212 18.2309C11.9048 18.2309 11.6694 18.301 11.5075 18.5319C11.3814 18.3381 11.2007 18.2309 10.9296 18.2309C10.7488 18.2309 10.5681 18.2845 10.4252 18.4783V18.2659H10.0469V19.9649H10.4252V19.0267C10.4252 18.7257 10.587 18.5834 10.8392 18.5834C11.0914 18.5834 11.2175 18.7422 11.2175 19.0267V19.9649H11.5958V19.0267C11.5958 18.7257 11.7766 18.5834 12.0098 18.5834C12.262 18.5834 12.3881 18.7422 12.3881 19.0267V19.9649H12.8064ZM18.4179 18.2659H17.8042V17.7525H17.4259V18.2659H17.0833V18.602H17.4259V19.3814C17.4259 19.7711 17.5877 19.9999 18.0207 19.9999C18.1825 19.9999 18.3632 19.9463 18.4893 19.8762L18.38 19.5566C18.2708 19.6267 18.1447 19.6453 18.0543 19.6453C17.8735 19.6453 17.8021 19.5381 17.8021 19.3628V18.602H18.4158V18.2659H18.4179ZM21.6292 18.2288C21.4128 18.2288 21.2678 18.336 21.1774 18.4762V18.2639H20.7991V19.9628H21.1774V19.0061C21.1774 18.7236 21.3035 18.5628 21.5389 18.5628C21.6103 18.5628 21.7007 18.5814 21.7743 18.5979L21.8835 18.2432C21.8079 18.2288 21.7007 18.2288 21.6292 18.2288ZM16.7765 18.4061C16.5957 18.2824 16.3435 18.2288 16.0724 18.2288C15.6394 18.2288 15.3515 18.4412 15.3515 18.7773C15.3515 19.0597 15.568 19.2206 15.9463 19.2721L16.127 19.2907C16.3246 19.3257 16.4339 19.3793 16.4339 19.468C16.4339 19.5917 16.2889 19.6803 16.0367 19.6803C15.7845 19.6803 15.5848 19.5917 15.4587 19.503L15.278 19.7855C15.4755 19.9278 15.7466 19.9979 16.0178 19.9979C16.5222 19.9979 16.8122 19.7669 16.8122 19.4494C16.8122 19.1484 16.5768 18.9896 16.2174 18.936L16.0367 18.9175C15.8748 18.8989 15.7487 18.8639 15.7487 18.7587C15.7487 18.635 15.8748 18.5649 16.0745 18.5649C16.291 18.5649 16.5074 18.6535 16.6167 18.7072L16.7765 18.4061ZM26.8414 18.2288C26.6249 18.2288 26.4799 18.336 26.3895 18.4762V18.2639H26.0112V19.9628H26.3895V19.0061C26.3895 18.7236 26.5156 18.5628 26.751 18.5628C26.8225 18.5628 26.9129 18.5814 26.9864 18.5979L27.0957 18.2474C27.0222 18.2288 26.915 18.2288 26.8414 18.2288ZM22.0075 19.1154C22.0075 19.6288 22.369 19.9999 22.9281 19.9999C23.1803 19.9999 23.361 19.9463 23.5418 19.8061L23.361 19.5051C23.216 19.6123 23.0731 19.6639 22.9092 19.6639C22.6023 19.6639 22.3858 19.4515 22.3858 19.1154C22.3858 18.7958 22.6023 18.5834 22.9092 18.5669C23.071 18.5669 23.216 18.6206 23.361 18.7257L23.5418 18.4247C23.361 18.2824 23.1803 18.2309 22.9281 18.2309C22.369 18.2288 22.0075 18.602 22.0075 19.1154ZM25.5068 19.1154V18.2659H25.1285V18.4783C25.0024 18.3195 24.8217 18.2309 24.5863 18.2309C24.0987 18.2309 23.7204 18.602 23.7204 19.1154C23.7204 19.6288 24.0987 19.9999 24.5863 19.9999C24.8385 19.9999 25.0193 19.9113 25.1285 19.7525V19.9649H25.5068V19.1154ZM24.1176 19.1154C24.1176 18.8144 24.3152 18.5669 24.641 18.5669C24.9478 18.5669 25.1643 18.7979 25.1643 19.1154C25.1643 19.4164 24.9478 19.6639 24.641 19.6639C24.3173 19.6453 24.1176 19.4144 24.1176 19.1154ZM19.5906 18.2288C19.0862 18.2288 18.7247 18.5834 18.7247 19.1133C18.7247 19.6453 19.0862 19.9979 19.6095 19.9979C19.8617 19.9979 20.1139 19.9278 20.3136 19.7669L20.1328 19.501C19.9878 19.6082 19.8071 19.6783 19.6284 19.6783C19.3931 19.6783 19.1598 19.5711 19.1051 19.2721H20.385C20.385 19.2185 20.385 19.1834 20.385 19.1298C20.4019 18.5834 20.0761 18.2288 19.5906 18.2288ZM19.5906 18.5484C19.826 18.5484 19.9878 18.6907 20.0236 18.9546H19.1219C19.1577 18.7257 19.3195 18.5484 19.5906 18.5484ZM28.9893 19.1154V17.5938H28.611V18.4783C28.4849 18.3195 28.3042 18.2309 28.0688 18.2309C27.5812 18.2309 27.2029 18.602 27.2029 19.1154C27.2029 19.6288 27.5812 19.9999 28.0688 19.9999C28.321 19.9999 28.5017 19.9113 28.611 19.7525V19.9649H28.9893V19.1154ZM27.6001 19.1154C27.6001 18.8144 27.7977 18.5669 28.1234 18.5669C28.4303 18.5669 28.6468 18.7979 28.6468 19.1154C28.6468 19.4164 28.4303 19.6639 28.1234 19.6639C27.7977 19.6453 27.6001 19.4144 27.6001 19.1154ZM14.9354 19.1154V18.2659H14.5571V18.4783C14.431 18.3195 14.2502 18.2309 14.0148 18.2309C13.5273 18.2309 13.149 18.602 13.149 19.1154C13.149 19.6288 13.5273 19.9999 14.0148 19.9999C14.2671 19.9999 14.4478 19.9113 14.5571 19.7525V19.9649H14.9354V19.1154ZM13.5294 19.1154C13.5294 18.8144 13.7269 18.5669 14.0527 18.5669C14.3595 18.5669 14.576 18.7979 14.576 19.1154C14.576 19.4164 14.3595 19.6639 14.0527 19.6639C13.7269 19.6453 13.5294 19.4144 13.5294 19.1154Z" fill="black"/>
<path d="M22.3333 5.36328H16.6504V15.3798H22.3333V5.36328Z" fill="#FF5A00"/>
<path d="M17.0284 10.3711C17.0284 8.33608 18.0036 6.5299 19.5 5.36289C18.3987 4.5134 17.0095 4 15.4942 4C11.9045 4 9 6.84948 9 10.3711C9 13.8928 11.9045 16.7423 15.4942 16.7423C17.0095 16.7423 18.3987 16.2289 19.5 15.3794C18.0015 14.2289 17.0284 12.4062 17.0284 10.3711Z" fill="#EB001B"/>
<path d="M30 10.3711C30 13.8928 27.0955 16.7423 23.5058 16.7423C21.9905 16.7423 20.6013 16.2289 19.5 15.3794C21.0153 14.2103 21.9716 12.4062 21.9716 10.3711C21.9716 8.33608 20.9964 6.5299 19.5 5.36289C20.5992 4.5134 21.9884 4 23.5037 4C27.0955 4 30 6.86804 30 10.3711Z" fill="#F79E1B"/>
</g>
<defs>
<clipPath id="clip0_932_33237">
<rect width="21" height="16" fill="white" transform="translate(9 4)"/>
</clipPath>
</defs>
</svg>
