<svg width="40" height="24" viewBox="0 0 40 24" fill="none" xmlns="http://www.w3.org/2000/svg">
<rect width="40" height="24" rx="4" fill="#F5F5F5"/>
<path d="M5.7124 8.08333H8.5999C8.8624 8.08333 9.6499 8 9.9999 9.16667C10.2624 9.91667 10.6124 11.0833 11.1374 12.8333H11.3124C11.8374 11 12.2749 9.75 12.4499 9.16667C12.7999 8 13.6749 8.08333 14.0249 8.08333H16.7374V16.0833H13.9374V11.3333H13.7624L12.2749 16.0833H10.1749L8.6874 11.3333H8.4249V16.0833H5.7124M17.8749 8.08333H20.6749V12.8333H20.9374L22.7749 8.91667C23.1249 8.16667 23.9124 8.08333 23.9124 8.08333H26.5374V16.0833H23.7374V11.3333H23.5624L21.7249 15.25C21.3749 16 20.4999 16.0833 20.4999 16.0833H17.8749M30.2999 13.6667V16.0833H27.6749V11.9167H36.2499C35.8999 12.9167 34.6749 13.6667 33.2749 13.6667" fill="#0F754E"/>
<path d="M36.425 11.4193C36.775 9.91927 35.725 8.08594 33.45 8.08594H27.5C27.675 9.83594 29.25 11.4193 30.9125 11.4193" fill="url(#paint0_linear_932_33244)"/>
<defs>
<linearGradient id="paint0_linear_932_33244" x1="35.375" y1="7.0026" x2="28.375" y2="7.0026" gradientUnits="userSpaceOnUse">
<stop stop-color="#1F5CD7"/>
<stop offset="1" stop-color="#02AEFF"/>
</linearGradient>
</defs>
</svg>
