<svg width="40" height="24" viewBox="0 0 40 24" fill="none" xmlns="http://www.w3.org/2000/svg">
<rect width="40" height="24" rx="4" fill="#F5F5F5"/>
<g clip-path="url(#clip0_932_33234)">
<path d="M22.9306 8.01172C21.0865 8.01172 19.4383 8.91772 19.4383 10.5912C19.4383 12.5107 22.3612 12.6432 22.3612 13.6076C22.3612 14.0137 21.8704 14.3771 21.0316 14.3771C19.8416 14.3771 18.9521 13.8693 18.9521 13.8693L18.5715 15.5583C18.5715 15.5583 19.5961 15.9873 20.9565 15.9873C22.9728 15.9873 24.5595 15.037 24.5595 13.3346C24.5595 11.3063 21.6244 11.1777 21.6244 10.2828C21.6244 9.96466 22.0274 9.61625 22.8636 9.61625C23.8071 9.61625 24.5767 9.9856 24.5767 9.9856L24.9493 8.35446C24.9493 8.35446 24.1116 8.01172 22.9304 8.01172H22.9306ZM6.05742 8.13492L6.0127 8.38107C6.0127 8.38107 6.78854 8.5156 7.48742 8.78417C8.38728 9.09192 8.45124 9.2713 8.60282 9.82766L10.2541 15.8602H12.4677L15.8779 8.13492H13.6694L11.4782 13.3874L10.584 8.93497C10.5021 8.42542 10.0866 8.13467 9.57834 8.13467H6.05768L6.05742 8.13492ZM16.766 8.13492L15.0337 15.8602H17.1397L18.8658 8.13492H16.766ZM28.5118 8.13492C28.004 8.13492 27.7349 8.39265 27.5376 8.84281L24.4522 15.8602H26.6606L27.0878 14.6905H29.7783L30.038 15.8602H31.9867L30.2868 8.13492H28.5118ZM28.7991 10.2221L29.4538 13.121H27.7001L28.7994 10.2221H28.7991Z" fill="#1434CB"/>
</g>
<defs>
<clipPath id="clip0_932_33234">
<rect width="26" height="8" fill="white" transform="translate(6 8)"/>
</clipPath>
</defs>
</svg>
