<svg xmlns="http://www.w3.org/2000/svg" width="16" height="16" viewBox="0 0 16 16" fill="#1C1B1F">

    <path
        d="M2.66667 14.6648C2.47778 14.6648 2.31944 14.601 2.19167 14.4732C2.06389 14.3454 2 14.1871 2 13.9982V10.6648C2 10.2982 2.13056 9.98429 2.39167 9.72318C2.65278 9.46207 2.96667 9.33151 3.33333 9.33151V6.66484C3.33333 6.29818 3.46389 5.98429 3.725 5.72318C3.98611 5.46207 4.3 5.33151 4.66667 5.33151H7.33333V4.36484C7.13333 4.23151 6.97222 4.0704 6.85 3.88151C6.72778 3.69262 6.66667 3.46484 6.66667 3.19818C6.66667 3.03151 6.7 2.86762 6.76667 2.70651C6.83333 2.5454 6.93333 2.39818 7.06667 2.26484L7.76667 1.56484C7.78889 1.54262 7.86667 1.50929 8 1.46484C8.02222 1.46484 8.1 1.49818 8.23333 1.56484L8.93333 2.26484C9.06667 2.39818 9.16667 2.5454 9.23333 2.70651C9.3 2.86762 9.33333 3.03151 9.33333 3.19818C9.33333 3.46484 9.27222 3.69262 9.15 3.88151C9.02778 4.0704 8.86667 4.23151 8.66667 4.36484V5.33151H11.3333C11.7 5.33151 12.0139 5.46207 12.275 5.72318C12.5361 5.98429 12.6667 6.29818 12.6667 6.66484V9.33151C13.0333 9.33151 13.3472 9.46207 13.6083 9.72318C13.8694 9.98429 14 10.2982 14 10.6648V13.9982C14 14.1871 13.9361 14.3454 13.8083 14.4732C13.6806 14.601 13.5222 14.6648 13.3333 14.6648H2.66667ZM4.66667 9.33151H11.3333V6.66484H4.66667V9.33151ZM3.33333 13.3315H12.6667V10.6648H3.33333V13.3315Z" />
</svg>