<svg xmlns="http://www.w3.org/2000/svg" width="16" height="16" viewBox="0 0 16 16" fill="#1C1B1F">
    <path
        d="M5.00033 7.33464C4.35588 7.33464 3.80588 7.10686 3.35033 6.6513C2.89477 6.19575 2.66699 5.64575 2.66699 5.0013C2.66699 4.35686 2.89477 3.80686 3.35033 3.3513C3.80588 2.89575 4.35588 2.66797 5.00033 2.66797C5.64477 2.66797 6.19477 2.89575 6.65033 3.3513C7.10588 3.80686 7.33366 4.35686 7.33366 5.0013C7.33366 5.64575 7.10588 6.19575 6.65033 6.6513C6.19477 7.10686 5.64477 7.33464 5.00033 7.33464ZM5.00033 6.0013C5.2781 6.0013 5.51421 5.90408 5.70866 5.70964C5.9031 5.51519 6.00033 5.27908 6.00033 5.0013C6.00033 4.72352 5.9031 4.48741 5.70866 4.29297C5.51421 4.09852 5.2781 4.0013 5.00033 4.0013C4.72255 4.0013 4.48644 4.09852 4.29199 4.29297C4.09755 4.48741 4.00033 4.72352 4.00033 5.0013C4.00033 5.27908 4.09755 5.51519 4.29199 5.70964C4.48644 5.90408 4.72255 6.0013 5.00033 6.0013ZM11.0003 13.3346C10.3559 13.3346 9.80588 13.1069 9.35033 12.6513C8.89477 12.1957 8.66699 11.6457 8.66699 11.0013C8.66699 10.3569 8.89477 9.80686 9.35033 9.3513C9.80588 8.89575 10.3559 8.66797 11.0003 8.66797C11.6448 8.66797 12.1948 8.89575 12.6503 9.3513C13.1059 9.80686 13.3337 10.3569 13.3337 11.0013C13.3337 11.6457 13.1059 12.1957 12.6503 12.6513C12.1948 13.1069 11.6448 13.3346 11.0003 13.3346ZM11.0003 12.0013C11.2781 12.0013 11.5142 11.9041 11.7087 11.7096C11.9031 11.5152 12.0003 11.2791 12.0003 11.0013C12.0003 10.7235 11.9031 10.4874 11.7087 10.293C11.5142 10.0985 11.2781 10.0013 11.0003 10.0013C10.7225 10.0013 10.4864 10.0985 10.292 10.293C10.0975 10.4874 10.0003 10.7235 10.0003 11.0013C10.0003 11.2791 10.0975 11.5152 10.292 11.7096C10.4864 11.9041 10.7225 12.0013 11.0003 12.0013ZM3.13366 12.868C3.01144 12.7457 2.95033 12.5902 2.95033 12.4013C2.95033 12.2124 3.01144 12.0569 3.13366 11.9346L11.9337 3.13464C12.0559 3.01241 12.2114 2.9513 12.4003 2.9513C12.5892 2.9513 12.7448 3.01241 12.867 3.13464C12.9892 3.25686 13.0503 3.41241 13.0503 3.6013C13.0503 3.79019 12.9892 3.94575 12.867 4.06797L4.06699 12.868C3.94477 12.9902 3.78921 13.0513 3.60033 13.0513C3.41144 13.0513 3.25588 12.9902 3.13366 12.868Z" />
</svg>