<svg xmlns="http://www.w3.org/2000/svg" width="16" height="16" viewBox="0 0 16 16" fill="#1C1B1F">

    <path
        d="M8 14.6654C6.82222 14.6654 5.86111 14.4793 5.11667 14.107C4.37222 13.7348 4 13.2543 4 12.6654C4 12.2765 4.16111 11.9376 4.48333 11.6487C4.80556 11.3598 5.25 11.132 5.81667 10.9654L6.2 12.232C6.01111 12.2876 5.83889 12.357 5.68333 12.4404C5.52778 12.5237 5.42222 12.5987 5.36667 12.6654C5.51111 12.8431 5.84444 12.9987 6.36667 13.132C6.88889 13.2654 7.43333 13.332 8 13.332C8.56667 13.332 9.11389 13.2654 9.64167 13.132C10.1694 12.9987 10.5056 12.8431 10.65 12.6654C10.5944 12.5987 10.4889 12.5237 10.3333 12.4404C10.1778 12.357 10.0056 12.2876 9.81667 12.232L10.2 10.9654C10.7667 11.132 11.2083 11.3598 11.525 11.6487C11.8417 11.9376 12 12.2765 12 12.6654C12 13.2543 11.6278 13.7348 10.8833 14.107C10.1389 14.4793 9.17778 14.6654 8 14.6654ZM8 10.2154C8.2 9.8487 8.41111 9.51259 8.63333 9.20703C8.85556 8.90148 9.07222 8.60981 9.28333 8.33203C9.69444 7.7987 10.0222 7.31814 10.2667 6.89037C10.5111 6.46259 10.6333 5.93203 10.6333 5.2987C10.6333 4.56536 10.3778 3.94314 9.86667 3.43203C9.35556 2.92092 8.73333 2.66536 8 2.66536C7.26667 2.66536 6.64444 2.92092 6.13333 3.43203C5.62222 3.94314 5.36667 4.56536 5.36667 5.2987C5.36667 5.93203 5.48889 6.46259 5.73333 6.89037C5.97778 7.31814 6.30556 7.7987 6.71667 8.33203C6.92778 8.60981 7.14444 8.90148 7.36667 9.20703C7.58889 9.51259 7.8 9.8487 8 10.2154ZM8 12.6654C7.87778 12.6654 7.76667 12.6293 7.66667 12.557C7.56667 12.4848 7.49444 12.3876 7.45 12.2654C7.19444 11.4765 6.87222 10.8154 6.48333 10.282C6.09444 9.7487 5.71667 9.23759 5.35 8.7487C4.99444 8.25981 4.68611 7.75425 4.425 7.23203C4.16389 6.70981 4.03333 6.06536 4.03333 5.2987C4.03333 4.18759 4.41667 3.2487 5.18333 2.48203C5.95 1.71536 6.88889 1.33203 8 1.33203C9.11111 1.33203 10.05 1.71536 10.8167 2.48203C11.5833 3.2487 11.9667 4.18759 11.9667 5.2987C11.9667 6.06536 11.8389 6.70981 11.5833 7.23203C11.3278 7.75425 11.0167 8.25981 10.65 8.7487C10.2944 9.23759 9.91945 9.7487 9.525 10.282C9.13056 10.8154 8.80556 11.4765 8.55 12.2654C8.50556 12.3876 8.43333 12.4848 8.33333 12.557C8.23333 12.6293 8.12222 12.6654 8 12.6654ZM8 6.71536C8.38889 6.71536 8.72222 6.57648 9 6.2987C9.27778 6.02092 9.41667 5.68759 9.41667 5.2987C9.41667 4.90981 9.27778 4.57648 9 4.2987C8.72222 4.02092 8.38889 3.88203 8 3.88203C7.61111 3.88203 7.27778 4.02092 7 4.2987C6.72222 4.57648 6.58333 4.90981 6.58333 5.2987C6.58333 5.68759 6.72222 6.02092 7 6.2987C7.27778 6.57648 7.61111 6.71536 8 6.71536Z" />
</svg>