<svg xmlns="http://www.w3.org/2000/svg" width="16" height="16" viewBox="0 0 16 16" fill="#1C1B1F">

    <path
        d="M13.333 13.3346H2.66634C2.29967 13.3346 1.98579 13.2041 1.72467 12.943C1.46356 12.6819 1.33301 12.368 1.33301 12.0013V9.33463C1.69967 9.33463 2.01356 9.20408 2.27467 8.94297C2.53579 8.68186 2.66634 8.36797 2.66634 8.0013C2.66634 7.63463 2.53579 7.32075 2.27467 7.05964C2.01356 6.79852 1.69967 6.66797 1.33301 6.66797V4.0013C1.33301 3.63464 1.46356 3.32075 1.72467 3.05964C1.98579 2.79852 2.29967 2.66797 2.66634 2.66797H13.333C13.6997 2.66797 14.0136 2.79852 14.2747 3.05964C14.5358 3.32075 14.6663 3.63464 14.6663 4.0013V6.66797C14.2997 6.66797 13.9858 6.79852 13.7247 7.05964C13.4636 7.32075 13.333 7.63463 13.333 8.0013C13.333 8.36797 13.4636 8.68186 13.7247 8.94297C13.9858 9.20408 14.2997 9.33463 14.6663 9.33463V12.0013C14.6663 12.368 14.5358 12.6819 14.2747 12.943C14.0136 13.2041 13.6997 13.3346 13.333 13.3346ZM13.333 12.0013V10.3013C12.9219 10.0569 12.5969 9.73186 12.358 9.3263C12.1191 8.92075 11.9997 8.47908 11.9997 8.0013C11.9997 7.52352 12.1191 7.08186 12.358 6.6763C12.5969 6.27075 12.9219 5.94575 13.333 5.7013V4.0013H2.66634V5.7013C3.07745 5.94575 3.40245 6.27075 3.64134 6.6763C3.88023 7.08186 3.99967 7.52352 3.99967 8.0013C3.99967 8.47908 3.88023 8.92075 3.64134 9.3263C3.40245 9.73186 3.07745 10.0569 2.66634 10.3013V12.0013H13.333Z" />
    <path
        d="M6.55613 7.78886C6.21611 7.78886 5.92725 7.66868 5.68955 7.42833C5.45186 7.18797 5.33301 6.89778 5.33301 6.55776C5.33301 6.21774 5.45251 5.92888 5.69151 5.69118C5.93053 5.45348 6.22004 5.33464 6.56006 5.33464C6.90008 5.33464 7.18961 5.45414 7.42866 5.69314C7.66771 5.93215 7.78724 6.22167 7.78724 6.56169C7.78724 6.90171 7.66706 7.19124 7.4267 7.43029C7.18634 7.66934 6.89615 7.78886 6.55613 7.78886ZM6.55793 6.98191C6.67525 6.98191 6.77498 6.94085 6.8571 6.85873C6.93922 6.7766 6.98028 6.67688 6.98028 6.55956C6.98028 6.44224 6.93922 6.34324 6.8571 6.26257C6.77498 6.18191 6.67525 6.14158 6.55793 6.14158C6.44061 6.14158 6.34161 6.18191 6.26095 6.26257C6.18028 6.34324 6.13995 6.44224 6.13995 6.55956C6.13995 6.67688 6.18028 6.7766 6.26095 6.85873C6.34161 6.94085 6.44061 6.98191 6.55793 6.98191ZM9.85932 11.0904C9.51976 11.0904 9.23035 10.9704 8.9911 10.7303C8.75184 10.4903 8.63222 10.2005 8.63222 9.86094C8.63222 9.52138 8.75239 9.23237 8.99275 8.99389C9.23311 8.75541 9.5233 8.63618 9.86332 8.63618C10.2033 8.63618 10.4926 8.75619 10.7311 8.99623C10.9695 9.23626 11.0888 9.52606 11.0888 9.86563C11.0888 10.2052 10.9688 10.4942 10.7287 10.7327C10.4887 10.9712 10.1989 11.0904 9.85932 11.0904ZM9.86152 10.2835C9.97884 10.2835 10.0778 10.2425 10.1585 10.1607C10.2392 10.0789 10.2795 9.9796 10.2795 9.86274C10.2795 9.74587 10.2392 9.64672 10.1585 9.56528C10.0778 9.48384 9.97884 9.44312 9.86152 9.44312C9.7442 9.44312 9.64448 9.48402 9.56235 9.56582C9.48023 9.64763 9.43917 9.74697 9.43917 9.86383C9.43917 9.9807 9.48023 10.0799 9.56235 10.1613C9.64448 10.2427 9.7442 10.2835 9.86152 10.2835ZM5.62066 10.8004C5.53851 10.7183 5.49744 10.6232 5.49744 10.5153C5.49744 10.4074 5.53851 10.3123 5.62066 10.2302L10.2429 5.61023C10.3251 5.52808 10.4181 5.48902 10.522 5.49304C10.6259 5.49706 10.719 5.54014 10.8011 5.62229C10.8833 5.70443 10.9243 5.7987 10.9243 5.90508C10.9243 6.01146 10.8833 6.10572 10.8011 6.18787L6.18116 10.8101C6.09902 10.8923 6.0056 10.9317 5.90091 10.9285C5.79622 10.9253 5.70281 10.8826 5.62066 10.8004Z" />
</svg>