<svg width="45" height="32" viewBox="0 0 45 32" fill="none" xmlns="http://www.w3.org/2000/svg">
<path fill-rule="evenodd" clip-rule="evenodd" d="M40.6061 4.57259L40.5861 4.55161C40.1401 4.08317 39.7099 3.8777 39.3308 3.76422C38.9841 3.6604 38.744 3.63624 38.3763 3.59922C38.2558 3.58709 38.1215 3.57358 37.9653 3.55543C34.914 3.33537 31.0787 3.22295 27.9649 3.16623C26.4038 3.13779 25.0373 3.12357 24.0616 3.11646C23.5738 3.11291 23.1842 3.11114 22.9171 3.11025C22.7836 3.10981 22.6808 3.10959 22.6117 3.10948H22.3883C22.3192 3.10959 22.2164 3.10981 22.0829 3.11025C21.8158 3.11114 21.4262 3.11291 20.9384 3.11646C19.9627 3.12357 18.5962 3.13779 17.0351 3.16623C13.9213 3.22295 10.086 3.33537 7.03473 3.55543C6.8785 3.57358 6.74425 3.58709 6.62371 3.59922C6.25596 3.63624 6.01592 3.6604 5.66915 3.76422C5.29009 3.87771 4.8599 4.08317 4.41388 4.55161L4.3939 4.57259L4.37362 4.59308C4.37362 4.59308 4.36562 4.60132 4.35062 4.62028C4.33468 4.64042 4.31304 4.66987 4.28661 4.71028C4.23255 4.79293 4.16893 4.90534 4.09983 5.05041C3.95889 5.34627 3.83074 5.70242 3.72165 6.07661C3.61436 6.44462 3.53818 6.78606 3.48927 7.03516C3.46515 7.15805 3.44849 7.25419 3.43856 7.31472C3.4349 7.33698 3.43219 7.35425 3.43037 7.36606L3.41724 7.47691C3.40575 7.57553 3.38894 7.7235 3.36859 7.91372C3.32784 8.29449 3.27305 8.84267 3.21817 9.50172C3.10773 10.8279 3 12.5669 3 14.28V17.7035C3 19.4188 3.10578 21.1594 3.21416 22.4865C3.26803 23.1461 3.32181 23.6947 3.36181 24.0758C3.3818 24.2662 3.3983 24.4144 3.40959 24.5131L3.42155 24.6162C3.42336 24.6276 3.42581 24.6428 3.42892 24.6614C3.43906 24.7223 3.45602 24.8188 3.4805 24.9421C3.5301 25.192 3.60718 25.5345 3.71526 25.9038C3.82515 26.2792 3.95404 26.6371 4.09564 26.9349C4.1651 27.081 4.22907 27.1944 4.28354 27.2781C4.31018 27.319 4.33202 27.3489 4.34817 27.3694C4.36437 27.39 4.37258 27.3982 4.37159 27.3972L4.38848 27.4144L4.40509 27.4319C4.7688 27.8138 5.2019 28.0267 5.73512 28.1649C6.01264 28.2369 6.30236 28.2846 6.63058 28.3277C6.67926 28.334 6.74311 28.3418 6.81702 28.3508C7.03293 28.3772 7.33472 28.414 7.59525 28.4568C9.311 28.6105 12.9251 28.7189 16.2622 28.7876C17.9403 28.8221 19.5075 28.846 20.6557 28.8612C21.2295 28.8689 21.6982 28.8743 22.023 28.8779L22.5104 28.8829L22.5976 28.8826C22.6668 28.8824 22.7698 28.882 22.9036 28.8813C23.171 28.88 23.5612 28.8775 24.0495 28.8732C25.0265 28.8646 26.3946 28.8485 27.9574 28.8184C31.0733 28.7584 34.9128 28.6438 37.9674 28.4278C38.1227 28.4098 38.2563 28.3963 38.3763 28.3842C38.744 28.3472 38.9841 28.3231 39.3308 28.2192C39.7099 28.1058 40.1401 27.9003 40.5861 27.4319L40.6061 27.4109L40.6264 27.3903C40.6264 27.3903 40.6347 27.3818 40.6502 27.3622C40.6665 27.3418 40.6884 27.312 40.715 27.2712C40.7696 27.1879 40.8337 27.0749 40.9033 26.9293C41.0453 26.6324 41.1744 26.2754 41.2845 25.9007C41.3928 25.5322 41.47 25.1903 41.5196 24.9408C41.5441 24.8178 41.561 24.7215 41.5712 24.6609C41.5743 24.6422 41.5767 24.6271 41.5785 24.6157L41.5905 24.5128C41.6018 24.4143 41.6183 24.2665 41.6382 24.0765C41.6782 23.6962 41.732 23.1485 41.7859 22.4896C41.8942 21.164 42 19.4233 42 17.7035V14.28C42 12.5647 41.8942 10.824 41.7858 9.49696C41.732 8.8374 41.6782 8.28879 41.6382 7.90765C41.6182 7.71724 41.6017 7.5691 41.5904 7.47032L41.5785 7.3674C41.5781 7.36532 41.5778 7.36313 41.5774 7.36081C41.5758 7.35045 41.5737 7.33767 41.5712 7.32261C41.561 7.26195 41.5441 7.16566 41.5196 7.04261C41.47 6.7932 41.3928 6.4513 41.2845 6.08275C41.1744 5.70804 41.0453 5.35103 40.9033 5.05417C40.8337 4.90857 40.7696 4.79554 40.715 4.71223C40.6884 4.6715 40.6665 4.64171 40.6502 4.62123C40.6347 4.60163 40.6264 4.59312 40.6264 4.59312L40.6061 4.57259ZM44.5518 6.96526C44.5518 6.96526 45 10.627 45 14.28V17.7035C45 21.3653 44.5518 25.0182 44.5518 25.0182C44.5518 25.0182 44.1123 28.1329 42.7588 29.5006C41.2144 31.1225 39.506 31.2901 38.5401 31.3849C38.434 31.3953 38.3369 31.4048 38.25 31.4153C31.957 31.8653 22.5 31.8829 22.5 31.8829C22.5 31.8829 10.8018 31.777 7.19824 31.4329C7.02297 31.3989 6.80951 31.3728 6.56741 31.3432C5.42551 31.2034 3.64648 30.9857 2.23242 29.5006C0.887695 28.1329 0.448242 25.0182 0.448242 25.0182C0.448242 25.0182 0 21.3564 0 17.7035V14.28C0 10.627 0.457031 6.96526 0.457031 6.96526C0.457031 6.96526 0.887695 3.85055 2.24121 2.4829C3.78555 0.860949 5.49403 0.693351 6.45995 0.598596C6.56598 0.588195 6.66306 0.578671 6.75 0.568198C13.043 0.109375 22.4912 0.109375 22.4912 0.109375H22.5088C22.5088 0.109375 31.957 0.109375 38.25 0.568198C38.3369 0.578671 38.434 0.588195 38.5401 0.598596C39.506 0.693351 41.2144 0.860949 42.7588 2.4829C44.1123 3.85055 44.5518 6.96526 44.5518 6.96526Z" fill="white"/>
<path d="M17.8506 9.16406V21.8611L30.0059 15.5346L17.8506 9.16406Z" fill="white"/>
</svg>
