<svg width="125" height="43" viewBox="0 0 125 43" fill="none" xmlns="http://www.w3.org/2000/svg">
<g id="ERIP_Logo_Rus-ai (1) 1" clip-path="url(#clip0_1570_11015)">
<g id="Layer 1">
<g id="&#60;Group&#62;">
<path id="&#60;Compound Path&#62;" fill-rule="evenodd" clip-rule="evenodd" d="M64.7528 16.9382C66.4392 18.9484 67.0546 21.3136 66.599 24.0597H53.7065C54.3219 26.0698 56.0393 27.3794 58.2743 27.3794C60.185 27.3794 61.5469 26.613 62.4223 25.08L66.017 26.6788C64.4928 29.359 61.6424 31.0847 58.1455 31.0847C55.5861 31.0847 53.4799 30.2548 51.7625 28.6255C50.0451 26.9962 49.2031 24.9531 49.2031 22.5267C49.2031 20.0981 50.0451 18.055 51.7291 16.428C53.4131 14.7987 55.4883 13.9688 57.9833 13.9688C60.8004 13.9688 63.0354 14.9586 64.7528 16.9382ZM53.7709 20.7705H62.2268C61.6114 18.8849 60.0228 17.6717 57.9833 17.6717C56.0393 17.6717 54.3863 18.8849 53.7709 20.7705Z" fill="#1E3E7A"/>
<path id="&#60;Compound Path&#62;_2" fill-rule="evenodd" clip-rule="evenodd" d="M84.3896 16.4256C85.9114 18.055 86.689 20.0981 86.689 22.5267C86.689 24.9531 85.9114 26.9962 84.3896 28.6255C82.8654 30.2548 80.9548 31.0847 78.6554 31.0847C76.5158 31.0847 74.734 30.3183 73.341 28.8159V37.1506H68.9688V14.2861H73.341V16.2352C74.734 14.7352 76.5158 13.9688 78.6554 13.9688C80.9548 13.9688 82.8654 14.7987 84.3896 16.4256ZM77.7466 27.156C79.0108 27.156 80.0484 26.7093 80.8904 25.8159C81.7324 24.9531 82.1546 23.8363 82.1546 22.5267C82.1546 21.2172 81.7324 20.0981 80.8904 19.2376C80.0484 18.3747 79.0108 17.928 77.7466 17.928C76.4848 17.928 75.4472 18.3747 74.6052 19.2376C73.7632 20.131 73.341 21.2172 73.341 22.5267C73.341 23.8363 73.7632 24.9531 74.6052 25.8159C75.4472 26.7093 76.4848 27.156 77.7466 27.156Z" fill="#1E3E7A"/>
<path id="&#60;Path&#62;" d="M93.2652 24.4584L101.234 14.2734H105.48V30.7499H101.106V20.5626L93.1364 30.7499H88.8906V14.2734H93.2652V24.4584Z" fill="#1E3E7A"/>
<path id="&#60;Path&#62;_2" d="M113.351 30.7523H108.977V14.2734H124.982V30.7523H120.607V18.0752H113.351V30.7523Z" fill="#1E3E7A"/>
<g id="&#60;Group&#62;_2">
<g id="&#60;Clip Group&#62;">
<mask id="mask0_1570_11015" style="mask-type:alpha" maskUnits="userSpaceOnUse" x="-9" y="-14" width="49" height="49">
<path id="&#60;Path&#62;_3" d="M15.6638 -13.4219L39.3639 10.5264L14.9267 34.0209L-8.77344 10.0726L15.6638 -13.4219Z" fill="url(#paint0_linear_1570_11015)"/>
</mask>
<g mask="url(#mask0_1570_11015)">
<path id="&#60;Compound Path&#62;_3" d="M0.46875 1.1875L15.5938 19.4109L20.6458 13.3309L10.568 1.1875H0.46875ZM15.6177 1.1875L25.6907 13.3239C28.0498 10.4837 29.2329 9.05897 29.2352 9.05192C30.1226 7.97747 30.0916 6.45396 29.2209 5.40772L26.5995 2.24785C26.0414 1.57778 25.2089 1.1875 24.3287 1.1875H15.6177Z" fill="url(#paint1_linear_1570_11015)"/>
</g>
</g>
<g id="&#60;Clip Group&#62;_2">
<mask id="mask1_1570_11015" style="mask-type:alpha" maskUnits="userSpaceOnUse" x="3" y="3" width="53" height="53">
<path id="&#60;Path&#62;_4" d="M55.6154 25.9846L33.1556 55.2064L3.57812 33.1202L26.0379 3.89844L55.6154 25.9846Z" fill="url(#paint2_linear_1570_11015)"/>
</mask>
<g mask="url(#mask1_1570_11015)">
<path id="&#60;Path&#62;_5" d="M16.4453 42.7285H25.1587C26.0365 42.7285 26.869 42.3405 27.4271 41.6705L41.8581 24.2888C42.743 23.2261 42.743 21.6932 41.8581 20.6281L38.3279 16.375L16.4453 42.7285Z" fill="url(#paint3_linear_1570_11015)"/>
</g>
</g>
<g id="&#60;Clip Group&#62;_3">
<mask id="mask2_1570_11015" style="mask-type:alpha" maskUnits="userSpaceOnUse" x="-17" y="-11" width="71" height="70">
<path id="&#60;Path&#62;_6" d="M53.3864 19.0154L22.8024 58.8077L-16.9531 29.1204L13.6286 -10.6719L53.3864 19.0154Z" fill="url(#paint4_linear_1570_11015)"/>
</mask>
<g mask="url(#mask2_1570_11015)">
<path id="&#60;Path&#62;_7" d="M29.2361 9.04264C29.2337 9.04969 28.0506 10.4745 25.6916 13.3146L1.27344 42.7221H11.3799L34.2762 15.1484C35.1611 14.0834 35.1611 12.5528 34.2762 11.4878L29.2218 5.39844C30.0924 6.44468 30.1234 7.96819 29.2361 9.04264Z" fill="url(#paint5_linear_1570_11015)"/>
</g>
</g>
</g>
</g>
</g>
</g>
<defs>
<linearGradient id="paint0_linear_1570_11015" x1="-21.5058" y1="29.1638" x2="-1.49785" y2="49.9736" gradientUnits="userSpaceOnUse">
<stop stop-color="#FFAA64"/>
<stop offset="1" stop-color="#FF513E"/>
</linearGradient>
<linearGradient id="paint1_linear_1570_11015" x1="4.74532" y1="0.716341" x2="29.754" y2="0.716341" gradientUnits="userSpaceOnUse">
<stop stop-color="#FFAA64"/>
<stop offset="1" stop-color="#FF513E"/>
</linearGradient>
<linearGradient id="paint2_linear_1570_11015" x1="3.04692" y1="-8.47727" x2="-16.684" y2="17.9463" gradientUnits="userSpaceOnUse">
<stop stop-color="#FFAA64"/>
<stop offset="1" stop-color="#FF513E"/>
</linearGradient>
<linearGradient id="paint3_linear_1570_11015" x1="19.1395" y1="15.9045" x2="42.2781" y2="15.9045" gradientUnits="userSpaceOnUse">
<stop stop-color="#FFAA64"/>
<stop offset="1" stop-color="#FF513E"/>
</linearGradient>
<linearGradient id="paint4_linear_1570_11015" x1="-17.7348" y1="-29.6582" x2="-45.6336" y2="7.7036" gradientUnits="userSpaceOnUse">
<stop stop-color="#FFAA64"/>
<stop offset="1" stop-color="#FF513E"/>
</linearGradient>
<linearGradient id="paint5_linear_1570_11015" x1="3.64083" y1="4.92845" x2="34.7187" y2="4.92845" gradientUnits="userSpaceOnUse">
<stop stop-color="#FFAA64"/>
<stop offset="1" stop-color="#FF513E"/>
</linearGradient>
<clipPath id="clip0_1570_11015">
<rect width="124" height="42" fill="white" transform="translate(0.742188 0.945312)"/>
</clipPath>
</defs>
</svg>
