<?xml version="1.0" encoding="UTF-8"?>
<!DOCTYPE svg PUBLIC "-//W3C//DTD SVG 1.1//EN" "http://www.w3.org/Graphics/SVG/1.1/DTD/svg11.dtd">
<!-- Creator: CorelDRAW 2018 (64-Bit) -->
<svg xmlns="http://www.w3.org/2000/svg" xml:space="preserve" width="925px" height="500px" version="1.1"
    style="shape-rendering:geometricPrecision; text-rendering:geometricPrecision; image-rendering:optimizeQuality; fill-rule:evenodd; clip-rule:evenodd"
    viewBox="0 0 926.62 500.62" xmlns:xlink="http://www.w3.org/1999/xlink">
    <defs>
        <style type="text/css">
            <![CDATA[
            .fil1 {
                fill: #10347D
            }

            .fil2 {
                fill: #8C9DC4
            }

            .fil3 {
                fill: #96A8D5
            }

            .fil0 {
                fill: white;
                fill-opacity: 0.000000
            }
            ]]>
        </style>
    </defs>
    <g id="Слой_x0020_1">
        <metadata id="CorelCorpID_0Corel-Layer" />

        <g id="_2053180556688">
            <path class="fil1"
                d="M716.52 309.87l15.18 74.48 -42.81 -0.16 27.63 -74.32zm-54.28 145.66c2.45,-1.31 6.51,-15.81 7.81,-19.42 4.8,-13.31 1.58,-10.55 16.67,-10.55 17.89,0 35.79,-0.06 53.59,0.02l6.1 29.95 48.37 -0.02 -41.79 -200.74c-14.03,-0.43 -29.3,-0.38 -43.36,-0.13 -13.62,0.26 -19.82,6.18 -24.79,18.22 -8.36,20.31 -17.02,40.5 -25.43,60.79 -16.18,39.02 -37.15,82.73 -50.86,121.88l53.69 0z" />
            <path class="fil1"
                d="M256.6 455.53c14.3,-0.05 28.6,0 42.9,0 11.45,0 11.11,2.88 15.05,-6.57l31.19 -74.41c16.16,-38.32 36.24,-81.21 50.07,-119.89l-54.57 0.05 -54.15 135.52c-4.37,-16.42 -7.48,-39.47 -10.71,-56.63 -3.56,-18.93 -7.17,-37.9 -10.68,-56.7 -4.84,-25.9 -24.56,-22.24 -45.28,-22.24 -22.51,0 -45.02,0.06 -67.51,0l-1.04 5.98c13.87,2.66 44.34,11.37 55.36,19.63 8.63,6.47 15.64,44.32 18.74,56.24 10.05,38.57 22.46,80.41 30.63,119.02z" />
            <path class="fil1"
                d="M611.77 302.43c0.91,-8.01 4.08,-19.65 5.87,-27.9 3.42,-15.82 6.89,-14.03 -8.29,-18.33 -19.32,-5.48 -39.98,-6.9 -59.81,-3.36 -33.7,6.02 -67.62,28.99 -65.24,67.28 2.63,42.28 46.06,45.09 67.18,65.38 18.23,17.51 -8.2,30.42 -24.92,31.16 -29.99,1.32 -40.19,-8.85 -54.37,-12.42l-9.23 44.14c18.22,4.67 30.12,10.01 50.28,10.17 19.49,0.15 34.06,-0.43 52.56,-7.3 29.91,-11.1 51.98,-40.44 44.07,-73.2 -7.96,-32.97 -41.79,-38.32 -64.26,-55.55 -17.92,-13.74 -0.44,-27.39 15.85,-29.11 19.37,-2.06 32.74,2.69 50.31,9.04z" />
            <path class="fil1"
                d="M375.33 455.53c12.47,-0.02 24.95,0 37.43,0 19.41,0 14.21,1.07 18.42,-18.51 4.36,-20.23 8.68,-40.42 12.95,-60.53 4.36,-20.59 8.68,-40.56 12.99,-60.97 3.93,-18.59 10.6,-42.56 12.91,-60.86l-51.89 0.08 -42.81 200.79z" />
            <path class="fil1"
                d="M735.68 102.1c40.19,-7.75 46.38,65.83 10.18,73.09 -42.28,8.48 -46.18,-66.15 -10.18,-73.09zm-25.49 69.63c4.35,2.38 5.8,11.94 20.27,16.44 9.79,3.04 21.06,2.32 30.44,-2 35.73,-16.45 34.73,-79.81 2.33,-95.06 -9.47,-4.46 -20.84,-4.88 -30.73,-1.73 -14.61,4.66 -13.38,11.29 -20.18,15.87l-0.22 -61.43 -17.45 0.1 -0.25 143.77 14.83 0 0.96 -15.96z" />
            <path class="fil1"
                d="M579.83 101.73c22.54,-3.21 30.11,15.4 30.06,34.25 -0.06,18.14 -2.04,38.04 -25.35,39.53 -38.99,2.5 -41.22,-68.6 -4.71,-73.78zm29.2 0.21c-8.31,-24.72 -75.4,-22.32 -73.05,40.68 1.32,35.43 29.31,55.47 57.08,44.58 13.13,-5.14 11.13,-8.92 18.63,-16.41l1.06 16.87 15.74 0.03 -0.39 -12.94c-1.41,-3.92 -0.67,-116.59 -0.67,-130.75l-17.36 0.01 0 58.16c-2,0.57 -0.4,0.24 -1.04,-0.23z" />
            <polygon class="fil1"
                points="101.08,168.7 100.71,169.58 99.94,168.3 64.28,51.1 45.43,51.22 45.43,51.89 89.77,187.69 109.58,187.58 158.22,51.1 139.14,51.07 " />
            <path class="fil1"
                d="M459.93 129.1c-1.16,-36.68 56.42,-38.7 51.62,0.06l-51.62 -0.06zm-0.43 12.8c16.73,-0.02 33.46,0 50.19,0 8.76,0 19.01,3.28 19.33,-5.43 1.71,-46.12 -40.59,-61.25 -67.41,-40.41 -41.96,32.6 -15.88,119.31 61.79,87.69l-2.91 -12.79c-28.1,8.62 -59.96,8.56 -60.99,-29.06z" />
            <path class="fil1"
                d="M168.11 129.1c-1.14,-36.7 56.3,-38.71 51.62,0.06l-51.62 -0.06zm-0.44 12.8c16.73,0 33.47,0 50.2,0 8.85,0 19,3.29 19.32,-5.45 0.28,-7.45 -0.66,-14.78 -3.03,-21.87 -9.37,-28.11 -41.47,-35.45 -64.09,-18.75 -37.15,27.42 -27.21,115.23 61.5,88.11l-2.92 -12.98c-27.61,7.97 -60.47,8.99 -60.98,-29.06z" />
            <path class="fil1"
                d="M879.57 90.71l0 -1.16 -18.86 0.04 -25.95 77.82 -27.69 -77.85 -19.54 -0.01c6.77,21.71 19.59,49.04 28.32,70.86 5.85,14.63 12.94,21.3 4.05,35.27 -11.09,17.42 -21.05,17.39 -26.87,22.14l4.24 14.69c46.43,-8.77 63.27,-104.68 82.3,-141.8z" />
            <path class="fil1"
                d="M401.64 44.17c-37.18,-8.82 -50.29,10.54 -50.29,45.34l-13.77 0.04 -0.01 13.77 13.78 0.18 0 84.18 17.62 0.01 0 -84.34 23.69 -0.22 0.01 -13.56 -23.7 -0.11c0,-22.84 3.56,-38.87 30.48,-31.31l2.19 -13.98z" />
            <path class="fil1"
                d="M251.4 187.68l17.17 0.01c5.06,-19.01 -13.78,-92.24 31.04,-82.83l-0.58 -17.08c-23.01,-3.53 -29.16,18.08 -32.39,21.06l-0.63 -19.29 -15.13 -0.01 0.52 98.14z" />
            <polygon class="fil1" points="410.19,187.69 428.15,187.69 428.15,89.55 410.19,89.54 " />
            <polygon class="fil1" points="310.13,187.69 328.08,187.69 328.08,89.55 310.13,89.54 " />
            <path class="fil1"
                d="M429.84 65.06c4.02,-14.99 -18.33,-19.76 -21.51,-5.89 -3.47,15.11 17.95,19.14 21.51,5.89z" />
            <path class="fil1"
                d="M308.13 64.55c2.17,12.94 24.45,10.88 21.75,-4.8 -2.35,-13.67 -24.42,-11.14 -21.75,4.8z" />
            <path class="fil2"
                d="M609.03 101.94c0.64,0.47 -0.96,0.8 1.04,0.23l0 -58.16 17.36 -0.01c0,14.16 -0.74,126.83 0.67,130.75l-0.27 -130.89c-2.43,-0.76 -15.19,-0.59 -18.09,-0.18 -0.76,5.16 -0.21,43.45 -0.18,55.06 0,1.76 0.12,2 -0.53,3.2z" />
            <polygon class="fil3" points="101.08,168.7 99.94,168.3 100.71,169.58 " />
        </g>
    </g>
</svg>