<svg width="2356" height="784" viewBox="0 0 2356 784" fill="none" xmlns="http://www.w3.org/2000/svg">
<path d="M1184.79 405.974L1143.11 490.997L1125.23 390.625H1104.32C1099.39 390.64 1094.57 392.035 1090.39 394.652C1086.22 397.269 1082.86 401.003 1080.69 405.432L1039.02 490.954L1029.49 435.981C1027.34 423.458 1020.83 412.098 1011.12 403.904C1001.41 395.711 989.115 391.211 976.408 391.197H894.318C894.318 391.197 980.63 413.435 987.842 454.232L1006.36 558.782H1046.36L1096.36 458.175L1115.67 559.031H1155.99L1239.35 391.402H1208.34C1203.46 391.394 1198.66 392.742 1194.5 395.297C1190.34 397.851 1186.96 401.512 1184.76 405.871L1184.79 405.974Z" fill="#140F6D"/>
<path d="M1333.6 387.049C1321.17 386.747 1308.81 389.052 1297.33 393.816C1285.84 398.58 1275.48 405.697 1266.92 414.709C1258.25 423.596 1251.45 434.13 1246.92 445.688C1242.39 457.247 1240.21 469.596 1240.53 482.006C1240.09 492.864 1242.04 503.686 1246.25 513.705C1250.46 523.724 1256.82 532.694 1264.88 539.981C1281.84 554.913 1303.87 562.782 1326.44 561.969C1347.18 563.116 1367.76 557.894 1385.44 547.003L1391.12 508.319C1374.85 517.196 1356.64 521.895 1338.11 521.995C1308.8 521.995 1287.13 509.99 1285.84 487.328H1405.82C1407.72 477.789 1408.7 468.089 1408.75 458.363C1408.98 448.901 1407.26 439.494 1403.71 430.72C1400.16 421.947 1394.85 413.994 1388.11 407.351C1380.9 400.419 1372.34 395.04 1362.96 391.548C1353.58 388.056 1343.59 386.525 1333.6 387.049ZM1363.59 457.41H1289.33C1291.37 447.784 1296.72 439.177 1304.44 433.085C1312.17 426.993 1321.78 423.8 1331.62 424.061C1339.35 423.33 1347.06 425.699 1353.05 430.646C1359.04 435.593 1362.82 442.715 1363.56 450.447C1363.71 451.996 1363.74 453.555 1363.65 455.109L1363.59 457.41Z" fill="#140F6D"/>
<path d="M1554.49 387.047C1544.13 386.875 1533.84 388.894 1524.31 392.974C1514.78 397.054 1506.22 403.101 1499.19 410.72L1513.2 324.41H1488.6C1482.36 324.448 1476.34 326.706 1471.61 330.781C1466.88 334.855 1463.76 340.48 1462.8 346.647L1429.46 557.731H1476.36L1479.69 535.743C1486.43 544.16 1495.02 550.91 1504.79 555.471C1514.56 560.031 1525.26 562.279 1536.04 562.04C1548.19 562.452 1560.28 560.015 1571.33 554.925C1582.38 549.835 1592.08 542.232 1599.67 532.723C1615.71 513.722 1624.35 489.571 1624.02 464.707C1624.61 444.57 1617.84 424.908 1604.96 409.416C1598.82 402.071 1591.08 396.234 1582.33 392.356C1573.58 388.477 1564.05 386.661 1554.49 387.047ZM1561.82 506.367C1557.49 511.034 1552.23 514.748 1546.38 517.272C1540.53 519.796 1534.23 521.074 1527.86 521.025C1519.38 520.935 1511.07 518.646 1503.73 514.38C1496.4 510.115 1490.31 504.021 1486.04 496.692L1493.04 452.379C1497.71 445.142 1504.05 439.147 1511.55 434.908C1519.04 430.669 1527.45 428.314 1536.05 428.047C1541.1 427.842 1546.15 428.635 1550.89 430.38C1555.64 432.125 1560 434.789 1563.71 438.217C1567.43 441.646 1570.44 445.773 1572.56 450.364C1574.68 454.954 1575.88 459.918 1576.08 464.971C1576.16 466.436 1576.16 467.904 1576.08 469.369C1576.43 483.052 1571.4 496.327 1562.07 506.338L1561.82 506.367Z" fill="#140F6D"/>
<path d="M1770.23 387.049C1759.86 386.877 1749.57 388.897 1740.04 392.976C1730.51 397.056 1721.95 403.104 1714.92 410.722L1718.25 391.387H1671.18L1634.17 624.356H1658.84C1665.09 624.347 1671.13 622.111 1675.88 618.049C1680.64 613.988 1683.79 608.366 1684.77 602.193L1695.22 535.731C1701.96 544.146 1710.55 550.895 1720.32 555.455C1730.1 560.016 1740.79 562.264 1751.57 562.028C1763.72 562.439 1775.81 560.003 1786.86 554.913C1797.91 549.823 1807.61 542.219 1815.2 532.711C1831.24 513.709 1839.88 489.559 1839.54 464.695C1840.14 444.554 1833.37 424.886 1820.49 409.389C1814.37 402.079 1806.66 396.266 1797.95 392.394C1789.23 388.522 1779.75 386.694 1770.23 387.049ZM1777.56 506.369C1773.24 511.054 1767.98 514.78 1762.13 517.305C1756.28 519.83 1749.96 521.098 1743.59 521.028C1735.08 520.966 1726.73 518.69 1719.37 514.424C1712 510.158 1705.87 504.048 1701.58 496.695L1708.68 452.382C1713.34 445.144 1719.69 439.148 1727.18 434.909C1734.67 430.67 1743.08 428.316 1751.68 428.049C1756.74 427.845 1761.78 428.637 1766.53 430.382C1771.27 432.127 1775.63 434.791 1779.35 438.22C1783.06 441.649 1786.07 445.776 1788.19 450.366C1790.31 454.957 1791.51 459.921 1791.72 464.974C1791.8 466.438 1791.8 467.907 1791.72 469.371C1792.04 483.064 1786.99 496.339 1777.63 506.34L1777.56 506.369Z" fill="#140F6D"/>
<path d="M2027.52 522.376C2019.85 522.376 2015.79 518.727 2015.79 511.368C2015.79 509.287 2016.47 505.094 2017.46 498.366L2022.8 466.014C2024.22 459.45 2025.01 452.764 2025.14 446.049C2025.79 437.387 2024.16 428.708 2020.41 420.871C2016.67 413.034 2010.94 406.312 2003.8 401.37C1987.79 391.257 1969.09 386.256 1950.17 387.033C1930.2 386.617 1910.36 390.247 1891.84 397.705L1885.91 436.756C1901.49 429.228 1918.59 425.353 1935.9 425.424C1964.24 425.424 1978.25 434.44 1978.25 452.44C1978.06 456.466 1977.61 460.475 1976.92 464.445C1960.56 455.934 1942.35 451.623 1923.91 451.898C1906.31 451.513 1889.07 457.012 1874.94 467.524C1868.39 472.552 1863.15 479.085 1859.67 486.57C1856.19 494.055 1854.56 502.27 1854.93 510.517C1854.93 540.86 1878.27 562.159 1914.56 562.159C1924.79 562.385 1934.95 560.556 1944.46 556.779C1953.96 553.002 1962.61 547.354 1969.9 540.172C1973.56 553.804 1985.55 560.811 2005.85 560.811C2014.47 561.17 2023.02 559.108 2030.52 554.86L2035.86 520.866C2033.18 521.816 2030.36 522.326 2027.52 522.376ZM1969.16 509.374C1964.29 514.702 1958.37 518.964 1951.77 521.89C1945.17 524.817 1938.04 526.345 1930.82 526.378C1913.15 526.378 1901.5 519.709 1901.5 506.369C1901.5 490.377 1915.85 482.036 1935.83 482.036C1948.78 481.545 1961.57 485.034 1972.48 492.033L1969.16 509.374Z" fill="#140F6D"/>
<path d="M2186.45 405.578L2137.13 500.859L2107.16 391.227H2058.16L2107.84 551.885C2094.84 574.166 2080.18 585.512 2063.5 585.512C2055.01 585.475 2046.71 583.051 2039.53 578.519L2033.26 619.183C2043.21 624.064 2054.19 626.468 2065.27 626.189C2081.23 625.877 2096.77 621.043 2110.09 612.25C2123.41 603.456 2133.97 591.064 2140.53 576.512L2243.82 391.227H2209.83C2204.99 391.231 2200.24 392.573 2196.12 395.106C2191.99 397.638 2188.65 401.263 2186.45 405.578Z" fill="#140F6D"/>
<path d="M2329.92 417.305C2329.92 408.935 2323.65 403.585 2314.03 403.585H2292.72V449.437H2302.88V431.319H2310.14L2323.33 449.437H2334.66L2320.62 430.102C2323.4 429.364 2325.85 427.689 2327.54 425.358C2329.24 423.027 2330.08 420.183 2329.92 417.305ZM2313.59 422.758H2302.89V412.175H2313.59C2314.37 412.07 2315.15 412.135 2315.89 412.364C2316.64 412.593 2317.32 412.981 2317.9 413.501C2318.48 414.021 2318.94 414.661 2319.25 415.376C2319.55 416.091 2319.7 416.864 2319.68 417.642C2319.68 420.999 2317.63 422.685 2313.59 422.685V422.758Z" fill="#140F6D"/>
<path d="M2311.28 382.431C2302.43 382.431 2293.79 385.054 2286.43 389.969C2279.08 394.883 2273.34 401.868 2269.96 410.04C2266.57 418.212 2265.69 427.204 2267.41 435.88C2269.14 444.555 2273.4 452.524 2279.65 458.779C2285.91 465.034 2293.88 469.293 2302.55 471.018C2311.23 472.744 2320.22 471.859 2328.39 468.474C2336.56 465.089 2343.55 459.357 2348.46 452.002C2353.38 444.647 2356 436 2356 427.155C2356 421.281 2354.84 415.466 2352.6 410.04C2350.35 404.614 2347.05 399.683 2342.9 395.53C2338.75 391.377 2333.82 388.084 2328.39 385.836C2322.97 383.589 2317.15 382.431 2311.28 382.431ZM2311.28 464.915C2303.81 464.912 2296.51 462.695 2290.3 458.544C2284.1 454.393 2279.26 448.495 2276.4 441.595C2273.55 434.695 2272.8 427.103 2274.26 419.779C2275.72 412.455 2279.32 405.728 2284.6 400.449C2289.88 395.17 2296.61 391.575 2303.93 390.119C2311.25 388.663 2318.85 389.411 2325.75 392.27C2332.64 395.128 2338.54 399.968 2342.69 406.178C2346.84 412.387 2349.05 419.687 2349.05 427.155C2349.05 432.115 2348.07 437.026 2346.18 441.608C2344.28 446.191 2341.49 450.354 2337.99 453.86C2334.48 457.367 2330.31 460.148 2325.73 462.045C2321.15 463.941 2316.24 464.917 2311.28 464.915Z" fill="#140F6D"/>
<path d="M336.114 205.318L391.159 0L446.13 205.318H336.114ZM522.107 338.321L628.384 154.318L444.4 260.378L522.107 338.321ZM577.283 446.668L838.49 391.71L577.341 336.65L577.283 446.668ZM444.341 522.603L628.34 628.883L522.107 444.88L444.341 522.603ZM335.982 577.781L390.983 783.011L445.983 577.781H335.982ZM260.049 444.939L153.772 628.942L337.771 522.706L260.049 444.939ZM204.888 336.46L0 391.374L205.225 446.434L204.888 336.46ZM337.961 260.422L153.919 154.186L260.122 338.307L337.961 260.422Z" fill="#140F6D"/>
</svg>
