<svg width="16" height="16" viewBox="0 0 16 16" fill="none" xmlns="http://www.w3.org/2000/svg">
<path fill-rule="evenodd" clip-rule="evenodd" d="M4 0C1.79086 0 0 1.79086 0 4V12C0 14.2091 1.79086 16 4 16H12C14.2091 16 16 14.2091 16 12V4C16 1.79086 14.2091 0 12 0H4ZM10.6 5.13304L6.66666 9.06637L5.39999 7.79971C5.27777 7.67748 5.12221 7.61637 4.93333 7.61637C4.74444 7.61637 4.58888 7.67748 4.46666 7.79971C4.34444 7.92193 4.28333 8.07749 4.28333 8.26637C4.28333 8.45526 4.34444 8.61082 4.46666 8.73304L6.19999 10.4664C6.33333 10.5997 6.48888 10.6664 6.66666 10.6664C6.84444 10.6664 6.99999 10.5997 7.13333 10.4664L11.5333 6.06637C11.6555 5.94415 11.7167 5.7886 11.7167 5.59971C11.7167 5.41082 11.6555 5.25526 11.5333 5.13304C11.4111 5.01082 11.2555 4.94971 11.0667 4.94971C10.8778 4.94971 10.7222 5.01082 10.6 5.13304Z" fill="black"/>
</svg>
