<svg width="45" height="32" viewBox="0 0 45 32" fill="none" xmlns="http://www.w3.org/2000/svg">
    <path
        d="M41.6725 3.51726L41.6824 3.52775L41.6926 3.53804C42.0902 3.93978 42.4554 4.74681 42.7237 5.65985C42.8476 6.08153 42.9348 6.46852 42.9908 6.74991C43.0186 6.88978 43.0383 7.00143 43.0507 7.07568C43.0569 7.11275 43.0612 7.14034 43.0638 7.15728L43.0649 7.16462L43.0672 7.18375L43.0807 7.30003C43.0925 7.40305 43.1095 7.55577 43.13 7.75107C43.171 8.14182 43.2259 8.70207 43.2809 9.37486C43.3911 10.7244 43.5 12.5091 43.5 14.28V17.7035C43.5 19.4788 43.3911 21.2635 43.2809 22.6118C43.2259 23.284 43.171 23.8434 43.13 24.2334C43.1095 24.4283 43.0925 24.5807 43.0808 24.6834L43.0673 24.7994L43.065 24.8186L43.0638 24.8262C43.0612 24.8431 43.0569 24.8707 43.0507 24.9078C43.0383 24.982 43.0186 25.0937 42.9908 25.2335C42.9348 25.5149 42.8476 25.9019 42.7237 26.3236C42.4554 27.2367 42.0902 28.0437 41.6926 28.4454L41.6824 28.4557L41.6725 28.4662C40.526 29.6703 39.3378 29.7932 38.3935 29.8909C38.2958 29.901 38.2006 29.9108 38.1084 29.9215C35.008 30.142 31.1197 30.2578 27.9863 30.3181C26.4171 30.3483 25.0437 30.3645 24.0628 30.3732C23.5724 30.3775 23.1803 30.3799 22.9111 30.3813C22.7765 30.382 22.6727 30.3824 22.6027 30.3826L22.5234 30.3828L22.5054 30.3829L22.5035 30.3829L22.4805 30.3827L22.3826 30.3817L22.0067 30.3778C21.6808 30.3742 21.2109 30.3688 20.6358 30.3611C19.4852 30.3458 17.9141 30.3219 16.2313 30.2873C12.8809 30.2183 9.16983 30.1081 7.40745 29.9459C7.13465 29.8959 6.85859 29.8595 6.58146 29.823C5.46335 29.6756 4.3278 29.526 3.31875 28.4662L3.31045 28.4575L3.30201 28.4489C2.90691 28.0471 2.54317 27.2391 2.27566 26.3251C2.15213 25.9031 2.06512 25.5158 2.00921 25.2342C1.98142 25.0942 1.96173 24.9824 1.94933 24.9081C1.94315 24.8709 1.9388 24.8433 1.9362 24.8263L1.93508 24.8189L1.93279 24.7997L1.91928 24.6834C1.90751 24.5804 1.89051 24.4277 1.87001 24.2324C1.829 23.8416 1.77409 23.2814 1.71914 22.6086C1.60892 21.259 1.5 19.4744 1.5 17.7035V14.28C1.5 12.5102 1.61099 10.7264 1.72334 9.37724C1.77935 8.7047 1.83531 8.14467 1.8771 7.7541C1.89799 7.5589 1.91532 7.40626 1.92731 7.30332L1.94107 7.18716L1.94388 7.16408L1.94548 7.15325C1.94803 7.13634 1.95229 7.10878 1.95837 7.07174C1.97055 6.99755 1.98993 6.88597 2.01737 6.74619C2.07259 6.46495 2.15874 6.07819 2.2816 5.65678C2.54771 4.74403 2.91097 3.93858 3.30736 3.53804L3.31755 3.52775L3.32754 3.51726C4.47401 2.31317 5.66219 2.19027 6.60651 2.0926C6.70463 2.08245 6.80012 2.07257 6.89265 2.06179C9.99135 1.83708 13.8765 1.72351 17.0078 1.66648C18.5755 1.63792 19.9476 1.62364 20.9275 1.6165C21.4174 1.61294 21.8091 1.61115 22.0779 1.61026C22.2123 1.60982 22.316 1.6096 22.3859 1.60949L22.4651 1.60939L22.4849 1.60938L22.4898 1.60938L22.4909 1.60938H22.4912L22.4912 0.109375V1.60938H22.5088V0.109375L22.5088 1.60938H22.5091L22.5102 1.60938L22.5151 1.60938L22.5349 1.60939L22.6141 1.60949C22.684 1.6096 22.7877 1.60982 22.9221 1.61026C23.1909 1.61115 23.5826 1.61294 24.0725 1.6165C25.0524 1.62364 26.4245 1.63792 27.9922 1.66648C31.1235 1.72351 35.0087 1.83708 38.1074 2.06179C38.1999 2.07258 38.2954 2.08245 38.3935 2.0926C39.3378 2.19027 40.526 2.31317 41.6725 3.51726Z"
        stroke="white" stroke-width="3" />
    <path d="M17.8506 9.16406V21.8611L30.0059 15.5346L17.8506 9.16406Z" fill="white" />

</svg>